<?xml version="1.0" encoding="UTF-8" standalone="no"?>
<!-- Created with Inkscape (http://www.inkscape.org/) -->

<svg
   version="1.1"
   id="svg1"
   width="121"
   height="55"
   viewBox="0 0 271.92001 124.01333"
   sodipodi:docname="PCA Logo.eps"
   xmlns:inkscape="http://www.inkscape.org/namespaces/inkscape"
   xmlns:sodipodi="http://sodipodi.sourceforge.net/DTD/sodipodi-0.dtd"
   xmlns="http://www.w3.org/2000/svg"
   xmlns:svg="http://www.w3.org/2000/svg">
  <defs
     id="defs1" />
  <sodipodi:namedview
     id="namedview1"
     pagecolor="#ffffff"
     bordercolor="#000000"
     borderopacity="0.25"
     inkscape:showpageshadow="2"
     inkscape:pageopacity="0.0"
     inkscape:pagecheckerboard="0"
     inkscape:deskcolor="#d1d1d1">
    <inkscape:page
       x="0"
       y="0"
       inkscape:label="1"
       id="page1"
       width="121"
       height="55"
       margin="0"
       bleed="0" />
  </sodipodi:namedview>
  <g
     id="g1"
     inkscape:groupmode="layer"
     inkscape:label="1">
    <g
       id="group-R5">
      <path
         id="path2"
         d="M 660.457,74.0625 C 592.57,27.3477 510.324,0 421.688,0 188.797,0 0,188.797 0,421.688 0,460.422 5.22266,497.941 15.0039,533.57 12.8359,375.441 88.4375,226.324 217.27,134.605 346.098,42.8906 511.746,20.2617 660.457,74.0625 Z M 404.309,87.3047 C 548.824,59.4883 697.191,110.992 793.387,222.363 634.934,102.727 414.395,110.199 264.398,240.281 114.402,370.367 75.8086,587.633 171.828,761.418 75.1836,650.43 45.1875,496.27 93.168,357.145 141.148,218.02 259.797,115.121 404.309,87.3047 Z M 196.711,785.82 170.469,802.156 c -0.856,0.535 -1.356,1.457 -1.332,2.469 0.023,1.008 0.566,1.906 1.441,2.398 5.43,3.047 10.563,6.09 16.758,2.825 l 14.754,-7.766 56.687,49.871 -83.441,43.934 c -1.168,0.613 -1.922,1.734 -2.047,3.047 -0.129,1.32 0.395,2.558 1.426,3.386 13.012,10.469 18.988,10.059 34.789,5.688 l 88.512,-26.211 39.457,30.211 c 7.765,5.945 15.976,13.808 25.418,16.879 17.656,5.742 30.574,-10.321 20.297,-26.004 -5.575,-8.516 -16.043,-14.297 -24.211,-20.078 l -40.555,-28.715 -1.231,-92.336 c -0.511,-16.356 -1.894,-22.184 -15.753,-31.504 -1.098,-0.738 -2.434,-0.867 -3.657,-0.355 -1.215,0.511 -2.062,1.562 -2.304,2.859 l -17.2,92.719 -64.441,-39.34 3.039,-16.395 c 1.281,-6.886 -3.148,-10.883 -7.668,-15.164 -0.73,-0.691 -1.754,-0.937 -2.719,-0.664 -0.972,0.278 -1.707,1.028 -1.961,2.008 l -7.816,29.902 v 0"
         style="fill:#ffffff;fill-opacity:1;fill-rule:evenodd;stroke:none"
         transform="matrix(0.13333333,0,0,-0.13333333,0,124.01333)" />
      <path
         id="path3"
         d="m 422.102,392.438 c -2.653,5.253 -5.278,10.449 -7.887,15.566 -2.606,5.125 -5.215,10.34 -7.817,15.644 -2.652,-5.304 -5.281,-10.566 -7.886,-15.773 -2.606,-5.215 -5.239,-10.449 -7.883,-15.711 l -24.813,-49.473 h 81.161 z M 484.793,266.793 463.219,308.18 H 349.242 L 327.938,266.793 H 278.527 L 383.48,466.719 h 46.375 L 534.738,266.793 h -49.945"
         style="fill:#ffffff;fill-opacity:1;fill-rule:nonzero;stroke:none"
         transform="matrix(0.13333333,0,0,-0.13333333,0,124.01333)" />
      <path
         id="path4"
         d="m 740.93,275.355 c -5.258,-2.117 -10.516,-3.945 -15.77,-5.496 -5.262,-1.554 -10.914,-2.871 -16.953,-3.976 -6.047,-1.102 -12.687,-1.961 -19.918,-2.598 -7.238,-0.625 -15.441,-0.945 -24.605,-0.945 -13.211,0 -25.192,1.258 -35.926,3.777 -10.742,2.52 -20.313,6.055 -28.719,10.617 -8.402,4.559 -15.684,10.02 -21.84,16.375 -6.152,6.36 -11.23,13.418 -15.23,21.172 -4.004,7.746 -6.965,16.055 -8.899,24.903 -1.929,8.859 -2.898,18.046 -2.898,27.57 0,9.344 1.023,18.418 3.066,27.195 2.047,8.789 5.125,17.043 9.235,24.778 4.113,7.722 9.293,14.804 15.539,21.23 6.242,6.426 13.582,11.941 22.004,16.547 8.429,4.605 17.929,8.187 28.515,10.754 10.582,2.562 22.301,3.84 35.153,3.84 7.773,0 15.175,-0.395 22.207,-1.18 7.035,-0.785 13.652,-1.852 19.855,-3.199 6.199,-1.352 11.984,-2.91 17.356,-4.688 5.367,-1.777 10.3,-3.629 14.796,-5.562 v -35.047 c -4.273,1.844 -8.988,3.672 -14.156,5.488 -5.172,1.824 -10.73,3.457 -16.683,4.891 -5.954,1.437 -12.301,2.597 -19.043,3.469 -6.739,0.878 -13.84,1.316 -21.301,1.316 -8.133,0 -15.535,-0.809 -22.211,-2.43 -6.668,-1.613 -12.637,-3.898 -17.895,-6.836 -5.254,-2.949 -9.828,-6.515 -13.714,-10.722 -3.887,-4.2 -7.102,-8.887 -9.641,-14.055 -2.539,-5.164 -4.43,-10.77 -5.664,-16.816 -1.235,-6.043 -1.852,-12.364 -1.852,-18.973 0,-6.25 0.575,-12.316 1.719,-18.195 1.145,-5.887 2.941,-11.426 5.391,-16.621 2.453,-5.184 5.562,-9.93 9.336,-14.219 3.777,-4.297 8.293,-7.989 13.55,-11.094 5.258,-3.094 11.282,-5.496 18.063,-7.207 6.785,-1.707 14.43,-2.566 22.918,-2.566 6.113,0 12.379,0.3 18.808,0.918 6.422,0.605 12.805,1.445 19.141,2.519 6.34,1.082 12.574,2.383 18.707,3.914 6.133,1.524 11.988,3.235 17.559,5.117 v -33.965"
         style="fill:#ffffff;fill-opacity:1;fill-rule:nonzero;stroke:none"
         transform="matrix(0.13333333,0,0,-0.13333333,0,124.01333)" />
      <path
         id="path5"
         d="m 901.086,392.438 c -2.652,5.253 -5.277,10.449 -7.887,15.566 -2.605,5.125 -5.215,10.34 -7.816,15.644 -2.653,-5.304 -5.281,-10.566 -7.883,-15.773 -2.609,-5.215 -5.242,-10.449 -7.887,-15.711 l -24.812,-49.473 h 81.16 z M 963.777,266.793 942.203,308.18 H 828.227 l -21.305,-41.387 h -49.41 l 104.953,199.926 h 46.375 l 104.88,-199.926 h -49.943"
         style="fill:#ffffff;fill-opacity:1;fill-rule:nonzero;stroke:none"
         transform="matrix(0.13333333,0,0,-0.13333333,0,124.01333)" />
      <path
         id="path6"
         d="m 1132.15,299.352 c 9.44,0 17.84,0.742 25.21,2.226 7.37,1.473 13.82,3.613 19.35,6.395 5.52,2.793 10.22,6.172 14.08,10.148 3.87,3.973 6.99,8.465 9.37,13.484 2.39,5.012 4.11,10.461 5.19,16.34 1.08,5.887 1.62,12.157 1.62,18.809 0,6.648 -0.54,12.918 -1.62,18.809 -1.08,5.886 -2.8,11.316 -5.19,16.308 -2.38,4.988 -5.5,9.473 -9.37,13.445 -3.86,3.977 -8.56,7.364 -14.08,10.149 -5.53,2.781 -11.98,4.922 -19.35,6.406 -7.37,1.484 -15.77,2.227 -25.21,2.227 h -43.88 V 299.352 Z m -88.09,-32.559 v 199.926 h 97.19 c 12.81,0 24.44,-1.106 34.89,-3.305 10.44,-2.203 19.78,-5.348 28,-9.441 8.23,-4.086 15.36,-9.035 21.4,-14.856 6.04,-5.82 11.04,-12.375 15,-19.648 3.95,-7.285 6.9,-15.196 8.83,-23.731 1.93,-8.535 2.9,-17.57 2.9,-27.101 0,-9.344 -0.99,-18.34 -2.97,-26.992 -1.97,-8.653 -4.99,-16.747 -9.03,-24.297 -4.04,-7.547 -9.16,-14.422 -15.37,-20.625 -6.2,-6.2 -13.51,-11.532 -21.94,-15.977 -8.42,-4.453 -18,-7.891 -28.71,-10.312 -10.72,-2.43 -22.64,-3.641 -35.76,-3.641 h -94.43"
         style="fill:#ffffff;fill-opacity:1;fill-rule:nonzero;stroke:none"
         transform="matrix(0.13333333,0,0,-0.13333333,0,124.01333)" />
      <path
         id="path7"
         d="m 1299.72,266.793 v 199.926 h 168.46 v -32.621 h -123.97 v -48.606 h 106.29 v -32.558 h -106.29 v -53.582 h 125.04 v -32.559 h -169.53"
         style="fill:#ffffff;fill-opacity:1;fill-rule:nonzero;stroke:none"
         transform="matrix(0.13333333,0,0,-0.13333333,0,124.01333)" />
      <path
         id="path8"
         d="m 1739.27,266.793 v 105.488 c 0,5.977 0,11.864 0,17.664 0,5.793 0,11.68 0,17.657 -4.32,-6.114 -8.59,-12.235 -12.84,-18.368 -4.25,-6.132 -8.53,-12.257 -12.84,-18.371 l -47.99,-68.211 h -31.21 l -48.06,68.485 c -2.16,3.058 -4.3,6.093 -6.41,9.133 -2.11,3.035 -4.21,6.062 -6.3,9.101 -2.08,3.027 -4.19,6.063 -6.3,9.102 -2.11,3.027 -4.25,6.074 -6.41,9.129 0,-5.84 0,-11.641 0,-17.391 0,-5.754 0,-11.555 0,-17.395 V 266.793 h -43.07 v 199.926 h 49.14 l 64.37,-91.938 c 3.33,-4.902 6.69,-9.699 10.08,-14.394 3.4,-4.699 6.76,-9.473 10.08,-14.328 3.45,4.855 6.86,9.718 10.21,14.589 3.35,4.883 6.75,9.766 10.22,14.668 l 64.03,91.403 h 46.38 V 266.793 h -43.08"
         style="fill:#ffffff;fill-opacity:1;fill-rule:nonzero;stroke:none"
         transform="matrix(0.13333333,0,0,-0.13333333,0,124.01333)" />
      <path
         id="path9"
         d="m 1903.34,266.793 v 74.277 l -91.67,125.649 h 52.71 l 42.54,-60.805 c 1.57,-2.285 3.15,-4.57 4.74,-6.836 1.6,-2.277 3.19,-4.543 4.76,-6.808 1.57,-2.274 3.15,-4.54 4.75,-6.805 1.6,-2.277 3.2,-4.551 4.82,-6.848 1.57,2.297 3.17,4.582 4.78,6.875 1.62,2.297 3.24,4.59 4.86,6.906 1.62,2.313 3.23,4.618 4.85,6.915 1.62,2.292 3.21,4.578 4.79,6.875 l 42.8,60.531 h 51.37 l -91.67,-123.754 v -76.172 h -44.43"
         style="fill:#ffffff;fill-opacity:1;fill-rule:nonzero;stroke:none"
         transform="matrix(0.13333333,0,0,-0.13333333,0,124.01333)" />
      <path
         id="path10"
         d="m 331.984,587.105 c 7.875,0 14.477,0.524 19.801,1.567 5.32,1.043 9.598,2.586 12.828,4.625 3.231,2.035 5.532,4.531 6.899,7.496 1.367,2.957 2.054,6.355 2.054,10.184 0,3.832 -0.687,7.195 -2.054,10.086 -1.367,2.898 -3.668,5.316 -6.899,7.257 -3.23,1.942 -7.508,3.403 -12.828,4.379 -5.324,0.977 -11.926,1.465 -19.801,1.465 h -30.457 v -47.059 z m -49.886,-58.273 v 119.199 h 54.043 c 7.011,0 13.304,-0.41 18.871,-1.226 5.57,-0.821 10.468,-1.996 14.703,-3.535 4.226,-1.543 7.84,-3.411 10.844,-5.61 3,-2.195 5.449,-4.668 7.359,-7.41 1.91,-2.75 3.301,-5.742 4.18,-8.984 0.875,-3.243 1.312,-6.672 1.312,-10.289 0,-3.614 -0.465,-7.059 -1.387,-10.329 -0.921,-3.265 -2.367,-6.304 -4.335,-9.101 -1.969,-2.801 -4.493,-5.328 -7.567,-7.578 -3.078,-2.25 -6.777,-4.164 -11.101,-5.746 -4.325,-1.578 -9.29,-2.797 -14.907,-3.657 -5.617,-0.855 -11.929,-1.285 -18.945,-1.285 h -33.641 v -44.449 h -19.429"
         style="fill:#ffffff;fill-opacity:1;fill-rule:nonzero;stroke:none"
         transform="matrix(0.13333333,0,0,-0.13333333,0,124.01333)" />
      <path
         id="path11"
         d="m 427.098,528.832 v 119.199 h 19.429 V 542.656 h 77.715 v -13.824 h -97.144"
         style="fill:#ffffff;fill-opacity:1;fill-rule:nonzero;stroke:none"
         transform="matrix(0.13333333,0,0,-0.13333333,0,124.01333)" />
      <path
         id="path12"
         d="m 620.281,618.051 c -1.324,2.332 -2.676,4.726 -4.058,7.191 -1.387,2.469 -2.739,4.891 -4.063,7.278 -1.351,-2.387 -2.715,-4.79 -4.086,-7.219 -1.367,-2.418 -2.715,-4.836 -4.039,-7.25 l -26.074,-45.856 -0.043,-0.082 h 68.437 l -0.042,0.082 z m 50.074,-89.219 -16.941,29.383 -0.043,0.078 h -82.422 l -0.047,-0.078 -16.797,-29.383 h -21.367 l 68.438,119.199 h 22.523 l 68.395,-119.199 h -21.739"
         style="fill:#ffffff;fill-opacity:1;fill-rule:nonzero;stroke:none"
         transform="matrix(0.13333333,0,0,-0.13333333,0,124.01333)" />
      <path
         id="path13"
         d="m 830.676,528.832 -79.977,81.664 c -2.644,2.731 -5.281,5.445 -7.914,8.137 -2.633,2.695 -5.281,5.406 -7.957,8.14 0,-1.66 0,-3.3 0,-4.921 0,-1.622 0,-3.243 0,-4.864 0,-1.621 0,-3.254 0,-4.883 0,-1.636 0,-3.273 0,-4.902 v -78.371 h -19.062 v 119.199 h 21.136 l 79.789,-81.824 c 1.325,-1.363 2.657,-2.727 3.997,-4.078 1.335,-1.352 2.675,-2.715 4.011,-4.078 1.34,-1.367 2.688,-2.731 4.039,-4.082 1.352,-1.352 2.692,-2.711 4.012,-4.078 0,1.632 0,3.269 0,4.906 0,1.633 0,3.266 0,4.898 0,1.637 0,3.266 0,4.883 0,1.621 0,3.262 0,4.926 v 78.527 h 19.109 V 528.832 h -21.183"
         style="fill:#ffffff;fill-opacity:1;fill-rule:nonzero;stroke:none"
         transform="matrix(0.13333333,0,0,-0.13333333,0,124.01333)" />
      <path
         id="path14"
         d="m 897.223,528.832 v 119.199 h 108.867 v -13.867 h -89.438 v -37.172 h 78.086 V 583.168 H 916.652 V 542.656 H 1007.2 V 528.832 H 897.223"
         style="fill:#ffffff;fill-opacity:1;fill-rule:nonzero;stroke:none"
         transform="matrix(0.13333333,0,0,-0.13333333,0,124.01333)" />
      <path
         id="path15"
         d="m 1216.85,532.773 c -2.37,-0.835 -5.08,-1.601 -8.12,-2.312 -3.04,-0.711 -6.42,-1.336 -10.13,-1.867 -3.71,-0.539 -7.74,-0.961 -12.11,-1.27 -4.37,-0.308 -9.07,-0.461 -14.08,-0.461 -7.23,0 -14.12,0.578 -20.67,1.731 -6.56,1.148 -12.63,2.871 -18.23,5.16 -5.6,2.293 -10.66,5.152 -15.19,8.582 -4.52,3.43 -8.37,7.422 -11.55,11.977 -3.19,4.554 -5.64,9.675 -7.37,15.371 -1.72,5.691 -2.58,11.941 -2.58,18.75 0,6.429 0.86,12.421 2.58,17.984 1.73,5.559 4.16,10.613 7.3,15.168 3.13,4.555 6.93,8.598 11.39,12.141 4.47,3.535 9.43,6.507 14.91,8.918 5.47,2.414 11.39,4.238 17.74,5.484 6.36,1.25 13.03,1.871 20.01,1.871 3.72,0 7.5,-0.129 11.33,-0.383 3.83,-0.254 7.6,-0.644 11.31,-1.164 3.7,-0.523 7.29,-1.187 10.75,-1.988 3.46,-0.805 6.68,-1.77 9.67,-2.895 v -14.668 c -3.39,1.203 -6.82,2.219 -10.29,3.055 -3.48,0.832 -6.93,1.504 -10.34,2.027 -3.42,0.524 -6.79,0.903 -10.13,1.149 -3.34,0.238 -6.56,0.359 -9.67,0.359 -5.69,0 -11.04,-0.429 -16.06,-1.281 -5.01,-0.863 -9.63,-2.16 -13.85,-3.902 -4.21,-1.746 -7.97,-3.914 -11.28,-6.512 -3.31,-2.598 -6.11,-5.637 -8.42,-9.125 -2.31,-3.481 -4.07,-7.41 -5.29,-11.789 -1.21,-4.383 -1.82,-9.203 -1.82,-14.449 0,-5.871 0.75,-11.114 2.24,-15.735 1.49,-4.625 3.55,-8.679 6.19,-12.176 2.63,-3.496 5.72,-6.472 9.29,-8.921 3.57,-2.454 7.44,-4.457 11.61,-6.012 4.17,-1.551 8.53,-2.68 13.08,-3.375 4.56,-0.695 9.14,-1.043 13.75,-1.043 5.48,0 10.5,0.183 15.05,0.562 4.55,0.375 8.66,0.844 12.3,1.407 3.65,0.558 6.85,1.183 9.62,1.867 2.77,0.683 5.12,1.336 7.06,1.949 v -14.184"
         style="fill:#ffffff;fill-opacity:1;fill-rule:nonzero;stroke:none"
         transform="matrix(0.13333333,0,0,-0.13333333,0,124.01333)" />
      <path
         id="path16"
         d="m 1316.67,618.051 c -1.32,2.332 -2.67,4.726 -4.06,7.191 -1.38,2.469 -2.73,4.891 -4.06,7.278 -1.35,-2.387 -2.72,-4.79 -4.08,-7.219 -1.37,-2.418 -2.72,-4.836 -4.05,-7.25 l -26.07,-45.856 -0.04,-0.082 h 68.44 l -0.05,0.082 z m 50.08,-89.219 -16.94,29.383 -0.04,0.078 h -82.43 l -0.05,-0.078 -16.79,-29.383 h -21.37 l 68.44,119.199 h 22.52 l 68.39,-119.199 h -21.73"
         style="fill:#ffffff;fill-opacity:1;fill-rule:nonzero;stroke:none"
         transform="matrix(0.13333333,0,0,-0.13333333,0,124.01333)" />
      <path
         id="path17"
         d="m 1461.08,591.367 c 7.88,0 14.53,0.414 19.96,1.246 5.43,0.828 9.81,2.121 13.15,3.875 3.34,1.754 5.74,4.004 7.23,6.754 1.47,2.742 2.21,6.035 2.21,9.863 0,3.833 -0.74,7.079 -2.21,9.747 -1.49,2.664 -3.89,4.839 -7.23,6.511 -3.34,1.676 -7.72,2.895 -13.15,3.66 -5.43,0.762 -12.08,1.141 -19.96,1.141 h -29.49 v -42.797 z m 52.19,-62.535 -43.83,42.805 c -0.93,0.883 -1.8,1.644 -2.61,2.289 -0.82,0.64 -1.65,1.195 -2.5,1.664 -0.84,0.469 -1.74,0.851 -2.68,1.148 -0.93,0.293 -1.96,0.528 -3.08,0.703 -1.13,0.172 -2.4,0.293 -3.81,0.36 -1.42,0.07 -3.02,0.105 -4.81,0.105 h -18.36 v -49.074 h -19.43 v 119.199 h 53.08 c 10.54,0 19.52,-0.797 26.9,-2.39 7.38,-1.594 13.4,-3.899 18.04,-6.914 4.65,-3.012 8.03,-6.676 10.13,-10.993 2.1,-4.312 3.16,-9.187 3.16,-14.629 0,-4.605 -0.89,-8.785 -2.68,-12.535 -1.77,-3.754 -4.4,-7.039 -7.86,-9.867 -3.46,-2.828 -7.73,-5.18 -12.81,-7.055 -5.08,-1.875 -10.91,-3.238 -17.49,-4.097 1.82,-0.59 3.51,-1.403 5.06,-2.434 1.55,-1.027 3.07,-2.254 4.59,-3.676 l 45.96,-44.609 h -24.97"
         style="fill:#ffffff;fill-opacity:1;fill-rule:nonzero;stroke:none"
         transform="matrix(0.13333333,0,0,-0.13333333,0,124.01333)" />
      <path
         id="path18"
         d="m 1564.68,528.832 v 119.199 h 108.87 v -13.867 h -89.44 v -37.172 h 78.08 v -13.824 h -78.08 v -40.512 h 90.54 v -13.824 h -109.97"
         style="fill:#ffffff;fill-opacity:1;fill-rule:nonzero;stroke:none"
         transform="matrix(0.13333333,0,0,-0.13333333,0,124.01333)" />
    </g>
  </g>
</svg>
