<svg width="38" height="38" xmlns="http://www.w3.org/2000/svg" xmlns:xlink="http://www.w3.org/1999/xlink" xml:space="preserve" overflow="hidden"><g><path d="M11.4792 10.2917C12.1521 10.2917 12.6667 9.77708 12.6667 9.10417L12.6667 6.72917C12.6667 6.05625 12.1521 5.54167 11.4792 5.54167 10.8062 5.54167 10.2917 6.05625 10.2917 6.72917L10.2917 9.10417C10.2917 9.77708 10.8062 10.2917 11.4792 10.2917Z" fill="#FFFFFF"/><path d="M7.91667 17.4167 30.0833 17.4167 30.0833 30.0833 7.91667 30.0833 7.91667 17.4167ZM5.54167 32.4583 32.4583 32.4583 32.4583 15.0417 5.54167 15.0417 5.54167 32.4583Z" fill="#FFFFFF"/><path d="M26.5208 10.2917C27.1938 10.2917 27.7083 9.77708 27.7083 9.10417L27.7083 6.72917C27.7083 6.05625 27.1938 5.54167 26.5208 5.54167 25.8479 5.54167 25.3333 6.05625 25.3333 6.72917L25.3333 9.10417C25.3333 9.77708 25.8479 10.2917 26.5208 10.2917Z" fill="#FFFFFF"/><path d="M29.2917 7.91667 29.2917 9.10417C29.2917 10.6479 28.0646 11.875 26.5208 11.875 24.9771 11.875 23.75 10.6479 23.75 9.10417L23.75 7.91667 14.25 7.91667 14.25 9.10417C14.25 10.6479 13.0229 11.875 11.4792 11.875 9.93542 11.875 8.70833 10.6479 8.70833 9.10417L8.70833 7.91667 5.54167 7.91667 5.54167 13.4583 32.4583 13.4583 32.4583 7.91667 29.2917 7.91667Z" fill="#FFFFFF"/></g></svg>