<svg width="38" height="38" xmlns="http://www.w3.org/2000/svg" xmlns:xlink="http://www.w3.org/1999/xlink" xml:space="preserve" overflow="hidden"><g><path d="M7.91667 20.5833 19 20.5833 19 22.1667 7.91667 22.1667Z" fill="#FFFFFF"/><path d="M7.91667 23.75 19 23.75 19 25.3333 7.91667 25.3333Z" fill="#FFFFFF"/><path d="M9.65833 16.7437C9.69792 16.7437 13.8938 15.2396 19 15.2396 24.1063 15.2396 28.3021 16.7437 28.3417 16.7437 28.5 16.7833 28.6188 16.8229 28.7771 16.8229 29.3312 16.8229 29.8458 16.4667 30.0042 15.8729 30.2417 15.1604 29.8854 14.3687 29.1729 14.1313 29.0146 14.0521 24.5417 12.4688 19 12.4688 13.4583 12.4688 8.98542 14.0521 8.7875 14.1313 8.11458 14.3687 7.71875 15.1604 7.95625 15.8729 8.23333 16.625 8.98542 16.9813 9.65833 16.7437" fill="#FFFFFF"/><path d="M3.16667 30.0833 34.8333 30.0833 34.8333 7.91667 3.16667 7.91667 3.16667 30.0833ZM32.4583 27.7083 5.54167 27.7083 5.54167 10.2917 32.4583 10.2917 32.4583 27.7083Z" fill="#FFFFFF"/><path d="M29.0938 21.8896 29.2521 20.8208 28.2229 21.0187 27.8271 19.9896 27.0354 20.7021 26.2042 19.9896 25.8479 21.0187 24.7792 20.8208 24.9771 21.8896 23.9479 22.2458 24.6604 23.0771 23.9479 23.8687 24.9771 24.2646 24.7792 25.2938 25.8479 25.1354 26.2042 26.125 27.0354 25.4521 27.8271 26.125 28.2229 25.1354 29.2521 25.2938 29.0938 24.2646 30.0833 23.8687 29.4104 23.0771 30.0833 22.2458Z" fill="#FFFFFF"/></g></svg>