<svg width="38" height="38" xmlns="http://www.w3.org/2000/svg" xmlns:xlink="http://www.w3.org/1999/xlink" xml:space="preserve" overflow="hidden"><g><path d="M34.0417 28.5C34.0417 29.0146 33.4479 29.4896 32.4583 29.8458L32.4583 28.4208C33.0125 28.2625 33.5667 28.025 34.0417 27.7875L34.0417 28.5ZM30.875 25.8875 30.875 24.4625C31.4292 24.3042 31.9833 24.0667 32.4583 23.8292L32.4583 24.5417C32.4583 25.0562 31.8646 25.5312 30.875 25.8875ZM30.875 30.3208C30.4 30.4396 29.8458 30.5187 29.2917 30.5979L29.2917 29.0542C29.8063 28.975 30.3604 28.8958 30.875 28.8167L30.875 30.3208ZM27.7083 25.0958C28.2229 25.0167 28.7771 24.9375 29.2917 24.8583L29.2917 26.3625C28.8167 26.4813 28.2625 26.5604 27.7083 26.6396L27.7083 25.0958ZM27.7083 30.7958C27.1938 30.8354 26.6792 30.875 26.125 30.875L26.125 29.2917C26.6 29.2917 27.1542 29.2521 27.7083 29.2125L27.7083 30.7958ZM24.5417 26.9167 24.5417 25.3333C25.0167 25.3333 25.5708 25.2938 26.125 25.2542L26.125 26.8375C25.6104 26.8771 25.0958 26.8771 24.5417 26.9167ZM24.5417 30.875C23.9875 30.875 23.4729 30.8354 22.9583 30.7958L22.9583 29.2917C23.2354 29.2917 23.4729 29.2917 23.75 29.2917 23.9875 29.2917 24.2646 29.2917 24.5417 29.2917L24.5417 30.875ZM21.375 25.2542C21.8896 25.2938 22.4042 25.3333 22.9583 25.3333L22.9583 26.9167C22.4042 26.9167 21.8896 26.8771 21.375 26.8375L21.375 25.2542ZM21.375 30.5979C20.8208 30.5187 20.2667 30.4396 19.7917 30.3208L19.7917 29.0542C20.3062 29.1333 20.8208 29.1729 21.375 29.2125L21.375 30.5979ZM18.2083 26.3625 18.2083 24.8188C18.7229 24.8979 19.2375 25.0167 19.7917 25.0562L19.7917 26.6396C19.2375 26.5604 18.6833 26.4813 18.2083 26.3625ZM18.2083 29.8458C17.2188 29.45 16.625 28.975 16.625 28.5L16.625 28.4208C16.625 28.4208 16.625 28.4208 16.6646 28.4208 16.7833 28.4604 16.8625 28.5 16.9813 28.5 17.3771 28.6188 17.7729 28.6979 18.2083 28.7771L18.2083 29.8458ZM11.875 24.4625C12.1521 24.4625 12.3896 24.5021 12.6667 24.5021L12.6667 24.5417C12.6667 25.0958 12.7854 25.65 13.0625 26.0854 12.6667 26.0854 12.2708 26.0458 11.875 26.0063L11.875 24.4625ZM10.2917 19.7125C10.8062 19.7917 11.3208 19.9104 11.875 19.95L11.875 21.5333C11.3208 21.4542 10.7667 21.375 10.2917 21.2563L10.2917 19.7125ZM10.2917 25.8479C9.7375 25.7687 9.18333 25.6896 8.70833 25.5708L8.70833 24.0271C9.22292 24.1063 9.7375 24.225 10.2917 24.2646L10.2917 25.8479ZM7.125 19.3958 7.125 18.6833C7.6 18.9208 8.11458 19.1187 8.70833 19.2771L8.70833 20.7417C7.71875 20.3854 7.125 19.9104 7.125 19.3958ZM7.125 25.0958C6.13542 24.7 5.54167 24.225 5.54167 23.75L5.54167 23.0375C6.01667 23.275 6.53125 23.4729 7.125 23.6313L7.125 25.0958ZM5.54167 12.7458C6.01667 12.9833 6.53125 13.1812 7.125 13.3396L7.125 14.8042C6.13542 14.4083 5.54167 13.9333 5.54167 13.4583L5.54167 12.7458ZM10.2917 14.0125 10.2917 15.5958C9.7375 15.5167 9.18333 15.4375 8.70833 15.3188L8.70833 13.775C9.22292 13.8542 9.7375 13.9333 10.2917 14.0125ZM14.25 7.125C19.0792 7.125 22.9583 8.19375 22.9583 9.5 22.9583 10.8062 19.0792 11.875 14.25 11.875 9.42083 11.875 5.54167 10.8062 5.54167 9.5 5.54167 8.19375 9.42083 7.125 14.25 7.125ZM16.625 25.8875C15.6354 25.4917 15.0417 25.0167 15.0417 24.5417L15.0417 23.8292C15.5167 24.0667 16.0312 24.2646 16.625 24.4229L16.625 25.8875ZM21.375 14.8042 21.375 13.3792C21.9292 13.2208 22.4833 12.9833 22.9583 12.7458L22.9583 13.4583C22.9583 13.9729 22.3646 14.4479 21.375 14.8042ZM18.2083 15.5562 18.2083 14.0125C18.7229 13.9333 19.2771 13.8542 19.7917 13.775L19.7917 15.2792C19.3167 15.3979 18.7625 15.4771 18.2083 15.5562ZM15.0417 15.8333 15.0417 14.25C15.5167 14.25 16.0708 14.2104 16.625 14.1708L16.625 15.7542C16.1104 15.7938 15.5958 15.7938 15.0417 15.8333ZM11.875 15.7542 11.875 14.1708C12.3896 14.2104 12.9042 14.25 13.4583 14.25L13.4583 15.8333C12.9042 15.7938 12.3896 15.7938 11.875 15.7542ZM32.4583 20.5833C32.4583 21.8896 28.5792 22.9583 23.75 22.9583 18.9208 22.9583 15.0417 21.8896 15.0417 20.5833 15.0417 19.2771 18.9208 18.2083 23.75 18.2083 28.5792 18.2083 32.4583 19.2771 32.4583 20.5833ZM34.8333 21.7708 34.8333 20.5833C34.8333 18.7229 33.3688 17.3771 30.5187 16.625 29.45 16.3479 28.2229 16.1104 26.8375 15.9917 26.8771 15.8333 26.8771 15.6354 26.8771 15.4375 26.8771 14.3292 26.3625 13.3792 25.2938 12.6667L25.2938 9.5C25.2938 7.63958 23.8292 6.29375 20.9792 5.54167 19.1187 5.02708 16.7437 4.75 14.2104 4.75 10.8854 4.75 3.12708 5.225 3.12708 9.5L3.12708 13.4583C3.12708 14.5667 3.64167 15.5167 4.71042 16.2292L4.71042 16.9813C3.76042 17.6542 3.12708 18.5646 3.12708 19.7917L3.12708 23.75C3.12708 25.6104 4.59167 26.9562 7.44167 27.7083 9.30208 28.2229 11.6771 28.5 14.2104 28.5 14.2104 30.3604 15.675 31.7063 18.525 32.4583 20.3854 32.9729 22.7604 33.25 25.2938 33.25 28.6188 33.25 36.3771 32.775 36.3771 28.5L36.3771 24.5417C36.4167 23.4333 35.9021 22.4833 34.8333 21.7708Z" fill="#FFFFFF"/></g></svg>