<svg width="38" height="38" xmlns="http://www.w3.org/2000/svg" xmlns:xlink="http://www.w3.org/1999/xlink" xml:space="preserve" overflow="hidden"><g><path d="M34.7542 7.52083 9.42083 7.52083C8.55 7.52083 7.8375 8.23333 7.8375 9.10417L7.8375 14.8438C8.27292 14.725 8.7875 14.6458 9.2625 14.6458 9.57917 14.6458 9.89583 14.6854 10.2125 14.725L10.2125 9.89583 33.9625 9.89583 33.9625 24.9375 20.5438 24.9375 18.2875 27.3125 34.7542 27.3125C35.625 27.3125 36.3375 26.6 36.3375 25.7292L36.3375 9.10417C36.3375 8.23333 35.625 7.52083 34.7542 7.52083" fill="#FFFFFF"/><path d="M9.30208 22.9583C11.1625 22.9583 12.6667 21.4542 12.6667 19.5938 12.6667 17.7333 11.1625 16.2292 9.30208 16.2292 7.44167 16.2292 5.9375 17.7333 5.9375 19.5938 5.89792 21.4542 7.44167 22.9583 9.30208 22.9583" fill="#FFFFFF"/><path d="M22.2458 19.0396C21.7313 18.2479 20.7021 18.05 19.9104 18.525 19.7521 18.6042 19.6729 18.7625 19.5938 18.8417L13.8146 24.8583C13.2604 24.5812 12.6667 24.3438 12.0729 24.1458 11.1625 23.9875 10.2125 23.7896 9.30208 23.7896 8.39167 23.7896 7.44167 23.9479 6.53125 24.225 5.18542 24.5812 3.99792 25.2542 3.00833 26.0854 2.77083 26.3229 2.57292 26.6792 2.49375 26.9958L1.6625 30.4792 13.4979 30.4792 13.4979 30.4396 16.8625 26.5208 22.0479 21.0583C22.5229 20.5833 22.6812 19.6729 22.2458 19.0396" fill="#FFFFFF"/></g></svg>