<svg width="38" height="38" xmlns="http://www.w3.org/2000/svg" xmlns:xlink="http://www.w3.org/1999/xlink" xml:space="preserve" overflow="hidden"><g><path d="M29.45 29.0146 22.325 26.5604 22.2854 26.5604 19.4354 25.5708 32.775 7.95625 29.45 29.0146ZM20.5438 27.6688 17.9312 30.2812 18.6437 27.0354 20.5438 27.6688 20.5438 27.6688ZM17.3771 25.65C17.2979 25.7292 17.2583 25.8479 17.2188 25.9667L17.1 26.4813 16.3083 30.0833 14.4083 24.5417 29.2125 10.2917 17.8521 25.0562 17.3771 25.65ZM5.9375 20.9792 29.1333 8.62917 13.2604 23.4729 5.9375 20.9792ZM34.5167 4.5125C34.2792 4.31458 33.9229 4.31458 33.6458 4.47292L3.60208 20.425C3.325 20.5833 3.16667 20.8604 3.16667 21.1771 3.16667 21.4937 3.40417 21.7708 3.68125 21.85L11.9146 24.6604 12.9438 25.0167 13.1812 25.6896 15.6354 33.0521 15.6354 33.0917 15.6354 33.1312C15.7146 33.3688 15.9521 33.5667 16.2292 33.6458 16.5063 33.725 16.7833 33.6458 16.9813 33.4479L17.0208 33.4083 17.2583 33.1708 22.2458 28.2625 29.8458 30.875C30.0833 30.9542 30.3208 30.9146 30.5187 30.7958 30.7167 30.6771 30.875 30.4792 30.9146 30.2417L34.8729 5.30417C34.9125 4.94792 34.7542 4.67083 34.5167 4.5125Z" fill="#FFFFFF"/></g></svg>