<svg width="38" height="38" xmlns="http://www.w3.org/2000/svg" xmlns:xlink="http://www.w3.org/1999/xlink" xml:space="preserve" overflow="hidden"><g><path d="M19 22.1667C17.2511 22.1667 15.8333 20.7489 15.8333 19 15.8333 17.2511 17.2511 15.8333 19 15.8333 20.7489 15.8333 22.1667 17.2511 22.1667 19 22.1667 20.7489 20.7489 22.1667 19 22.1667ZM19 17.4167C18.1256 17.4167 17.4167 18.1256 17.4167 19 17.4167 19.8744 18.1256 20.5833 19 20.5833 19.8744 20.5833 20.5833 19.8744 20.5833 19 20.5833 18.1256 19.8744 17.4167 19 17.4167Z" fill="#FFFFFF"/><path d="M32.8542 18.2083C32.4391 11.1732 26.8268 5.5609 19.7917 5.14583L19.7917 2.77083 18.2083 2.77083 18.2083 5.14583C11.1732 5.5609 5.5609 11.1732 5.14583 18.2083L2.77083 18.2083 2.77083 19.7917 5.14583 19.7917C5.5609 26.8268 11.1732 32.4391 18.2083 32.8542L18.2083 35.2292 19.7917 35.2292 19.7917 32.8542C26.8268 32.4391 32.4391 26.8268 32.8542 19.7917L35.2292 19.7917 35.2292 18.2083ZM26.98 19.7917C26.5996 23.593 23.593 26.5996 19.7917 26.98L19.7917 23.75 18.2083 23.75 18.2083 26.98C14.407 26.5996 11.4004 23.593 11.02 19.7917L14.25 19.7917 14.25 18.2083 11.02 18.2083C11.4004 14.407 14.407 11.4004 18.2083 11.02L18.2083 14.25 19.7917 14.25 19.7917 11.02C23.593 11.4004 26.5996 14.407 26.98 18.2083L23.75 18.2083 23.75 19.7917ZM18.2083 7.52083 18.2083 9.43271C13.5333 9.82538 9.82351 13.5335 9.42875 18.2083L7.52083 18.2083C7.92791 12.4829 12.4829 7.92791 18.2083 7.52083ZM7.52083 19.7917 9.43271 19.7917C9.82538 24.4667 13.5335 28.1765 18.2083 28.5713L18.2083 30.4792C12.4829 30.0721 7.92791 25.5171 7.52083 19.7917ZM19.7917 30.4792 19.7917 28.5713C24.4681 28.1783 28.1783 24.4681 28.5713 19.7917L30.4792 19.7917C30.0721 25.5171 25.5171 30.0721 19.7917 30.4792ZM28.5713 18.2083C28.1783 13.5319 24.4681 9.82169 19.7917 9.42875L19.7917 7.52083C25.5171 7.92791 30.0721 12.4829 30.4792 18.2083Z" fill="#FFFFFF"/></g></svg>