<?xml version="1.0" encoding="UTF-8"?>
<svg xmlns="http://www.w3.org/2000/svg" xmlns:xlink="http://www.w3.org/1999/xlink" width="77px" height="35px" viewBox="0 0 76 35" version="1.1">
<g id="surface1">
<path style=" stroke:none;fill-rule:evenodd;fill:rgb(100%,100%,100%);fill-opacity:1;" d="M 12.300781 16.109375 C 11.039062 16.988281 9.507812 17.5 7.855469 17.5 C 3.515625 17.5 0 13.949219 0 9.566406 C 0 8.839844 0.0976562 8.132812 0.28125 7.460938 C 0.238281 10.4375 1.648438 13.242188 4.046875 14.96875 C 6.445312 16.695312 9.53125 17.121094 12.300781 16.109375 Z M 7.53125 15.859375 C 10.222656 16.382812 12.988281 15.414062 14.777344 13.316406 C 11.828125 15.570312 7.71875 15.429688 4.925781 12.980469 C 2.132812 10.53125 1.414062 6.445312 3.199219 3.175781 C 1.402344 5.261719 0.839844 8.164062 1.734375 10.78125 C 2.628906 13.398438 4.839844 15.335938 7.53125 15.859375 Z M 3.664062 2.714844 L 3.175781 2.40625 C 3.160156 2.398438 3.148438 2.378906 3.152344 2.359375 C 3.152344 2.34375 3.160156 2.324219 3.175781 2.316406 C 3.277344 2.257812 3.375 2.203125 3.488281 2.261719 L 3.765625 2.410156 L 4.820312 1.46875 L 3.265625 0.644531 C 3.246094 0.632812 3.230469 0.609375 3.226562 0.585938 C 3.226562 0.5625 3.234375 0.539062 3.253906 0.523438 C 3.496094 0.324219 3.609375 0.332031 3.902344 0.414062 L 5.550781 0.910156 L 6.285156 0.339844 C 6.429688 0.230469 6.582031 0.0820312 6.757812 0.0234375 C 7.089844 -0.0859375 7.328125 0.21875 7.136719 0.511719 C 7.035156 0.671875 6.839844 0.78125 6.6875 0.890625 L 5.929688 1.429688 L 5.910156 3.167969 C 5.898438 3.476562 5.875 3.585938 5.613281 3.761719 C 5.59375 3.773438 5.570312 3.777344 5.546875 3.765625 C 5.523438 3.757812 5.507812 3.738281 5.503906 3.714844 L 5.183594 1.96875 L 3.984375 2.710938 L 4.039062 3.015625 C 4.0625 3.148438 3.980469 3.222656 3.898438 3.304688 C 3.882812 3.316406 3.863281 3.320312 3.847656 3.316406 C 3.828125 3.308594 3.816406 3.296875 3.808594 3.277344 L 3.664062 2.714844 "/>
<path style=" stroke:none;fill-rule:nonzero;fill:rgb(100%,100%,100%);fill-opacity:1;" d="M 7.863281 10.117188 C 7.8125 10.019531 7.765625 9.921875 7.714844 9.824219 C 7.667969 9.726562 7.617188 9.628906 7.570312 9.53125 C 7.519531 9.628906 7.472656 9.730469 7.421875 9.828125 C 7.375 9.925781 7.324219 10.023438 7.277344 10.121094 L 6.8125 11.054688 L 8.324219 11.054688 Z M 9.03125 12.480469 L 8.628906 11.703125 L 6.503906 11.703125 L 6.109375 12.480469 L 5.1875 12.480469 L 7.144531 8.71875 L 8.007812 8.71875 L 9.960938 12.480469 L 9.03125 12.480469 "/>
<path style=" stroke:none;fill-rule:nonzero;fill:rgb(100%,100%,100%);fill-opacity:1;" d="M 13.800781 12.320312 C 13.703125 12.359375 13.605469 12.394531 13.507812 12.425781 C 13.410156 12.453125 13.304688 12.476562 13.191406 12.5 C 13.078125 12.519531 12.957031 12.535156 12.820312 12.546875 C 12.6875 12.558594 12.535156 12.566406 12.363281 12.566406 C 12.117188 12.566406 11.894531 12.542969 11.695312 12.496094 C 11.492188 12.445312 11.316406 12.378906 11.160156 12.292969 C 11.003906 12.207031 10.867188 12.105469 10.75 11.988281 C 10.636719 11.867188 10.542969 11.734375 10.46875 11.589844 C 10.394531 11.441406 10.339844 11.285156 10.300781 11.121094 C 10.265625 10.953125 10.25 10.78125 10.25 10.601562 C 10.25 10.425781 10.265625 10.253906 10.304688 10.089844 C 10.34375 9.921875 10.402344 9.769531 10.476562 9.621094 C 10.554688 9.476562 10.652344 9.34375 10.765625 9.222656 C 10.882812 9.101562 11.019531 9 11.175781 8.910156 C 11.332031 8.824219 11.511719 8.757812 11.707031 8.710938 C 11.90625 8.660156 12.125 8.636719 12.363281 8.636719 C 12.507812 8.636719 12.644531 8.644531 12.777344 8.660156 C 12.90625 8.675781 13.03125 8.695312 13.144531 8.71875 C 13.261719 8.746094 13.371094 8.773438 13.46875 8.808594 C 13.570312 8.839844 13.660156 8.875 13.746094 8.914062 L 13.746094 9.570312 C 13.664062 9.539062 13.578125 9.503906 13.480469 9.46875 C 13.386719 9.433594 13.28125 9.402344 13.171875 9.375 C 13.058594 9.347656 12.941406 9.328125 12.816406 9.3125 C 12.691406 9.292969 12.558594 9.285156 12.417969 9.285156 C 12.269531 9.285156 12.128906 9.300781 12.003906 9.332031 C 11.882812 9.363281 11.769531 9.40625 11.671875 9.460938 C 11.574219 9.515625 11.488281 9.582031 11.417969 9.664062 C 11.34375 9.742188 11.285156 9.828125 11.238281 9.925781 C 11.191406 10.023438 11.15625 10.128906 11.132812 10.242188 C 11.109375 10.355469 11.097656 10.476562 11.097656 10.601562 C 11.097656 10.71875 11.109375 10.832031 11.128906 10.941406 C 11.152344 11.054688 11.183594 11.15625 11.230469 11.253906 C 11.273438 11.351562 11.332031 11.441406 11.402344 11.523438 C 11.472656 11.605469 11.558594 11.671875 11.65625 11.730469 C 11.753906 11.789062 11.867188 11.835938 11.992188 11.867188 C 12.117188 11.898438 12.261719 11.914062 12.417969 11.914062 C 12.53125 11.914062 12.648438 11.910156 12.769531 11.898438 C 12.890625 11.886719 13.007812 11.871094 13.125 11.851562 C 13.246094 11.832031 13.359375 11.804688 13.472656 11.777344 C 13.589844 11.75 13.699219 11.714844 13.800781 11.679688 L 13.800781 12.320312 "/>
<path style=" stroke:none;fill-rule:nonzero;fill:rgb(100%,100%,100%);fill-opacity:1;" d="M 16.785156 10.117188 C 16.734375 10.019531 16.6875 9.921875 16.636719 9.824219 C 16.589844 9.726562 16.539062 9.628906 16.492188 9.53125 C 16.441406 9.628906 16.394531 9.730469 16.34375 9.828125 C 16.296875 9.925781 16.246094 10.023438 16.199219 10.121094 L 15.738281 11.054688 L 17.25 11.054688 Z M 17.953125 12.480469 L 17.550781 11.703125 L 15.429688 11.703125 L 15.03125 12.480469 L 14.109375 12.480469 L 16.066406 8.71875 L 16.929688 8.71875 L 18.882812 12.480469 L 17.953125 12.480469 "/>
<path style=" stroke:none;fill-rule:nonzero;fill:rgb(100%,100%,100%);fill-opacity:1;" d="M 21.089844 11.867188 C 21.265625 11.867188 21.421875 11.855469 21.558594 11.828125 C 21.695312 11.800781 21.816406 11.757812 21.917969 11.707031 C 22.023438 11.652344 22.109375 11.589844 22.179688 11.515625 C 22.253906 11.441406 22.3125 11.355469 22.355469 11.261719 C 22.402344 11.167969 22.433594 11.066406 22.453125 10.953125 C 22.472656 10.84375 22.484375 10.726562 22.484375 10.601562 C 22.484375 10.476562 22.472656 10.359375 22.453125 10.246094 C 22.433594 10.136719 22.402344 10.035156 22.355469 9.941406 C 22.3125 9.847656 22.253906 9.761719 22.179688 9.6875 C 22.109375 9.613281 22.023438 9.546875 21.917969 9.496094 C 21.816406 9.445312 21.695312 9.402344 21.558594 9.375 C 21.421875 9.347656 21.265625 9.332031 21.089844 9.332031 L 20.273438 9.332031 L 20.273438 11.867188 Z M 19.449219 12.480469 L 19.449219 8.71875 L 21.257812 8.71875 C 21.496094 8.71875 21.714844 8.742188 21.910156 8.78125 C 22.101562 8.824219 22.277344 8.882812 22.429688 8.960938 C 22.582031 9.035156 22.714844 9.128906 22.828125 9.238281 C 22.941406 9.347656 23.035156 9.472656 23.109375 9.609375 C 23.183594 9.746094 23.238281 9.894531 23.273438 10.054688 C 23.308594 10.214844 23.328125 10.386719 23.328125 10.566406 C 23.328125 10.742188 23.308594 10.910156 23.269531 11.074219 C 23.234375 11.234375 23.179688 11.386719 23.101562 11.53125 C 23.027344 11.671875 22.933594 11.800781 22.816406 11.917969 C 22.703125 12.035156 22.566406 12.136719 22.40625 12.21875 C 22.25 12.304688 22.074219 12.367188 21.875 12.414062 C 21.671875 12.457031 21.453125 12.480469 21.207031 12.480469 L 19.449219 12.480469 "/>
<path style=" stroke:none;fill-rule:nonzero;fill:rgb(100%,100%,100%);fill-opacity:1;" d="M 24.210938 12.480469 L 24.210938 8.71875 L 27.347656 8.71875 L 27.347656 9.332031 L 25.039062 9.332031 L 25.039062 10.246094 L 27.019531 10.246094 L 27.019531 10.859375 L 25.039062 10.859375 L 25.039062 11.867188 L 27.367188 11.867188 L 27.367188 12.480469 L 24.210938 12.480469 "/>
<path style=" stroke:none;fill-rule:nonzero;fill:rgb(100%,100%,100%);fill-opacity:1;" d="M 32.398438 12.480469 L 32.398438 10.496094 C 32.398438 10.382812 32.398438 10.273438 32.398438 10.164062 C 32.398438 10.054688 32.398438 9.945312 32.398438 9.832031 C 32.316406 9.945312 32.238281 10.0625 32.160156 10.175781 C 32.078125 10.292969 32 10.410156 31.917969 10.523438 L 31.027344 11.808594 L 30.445312 11.808594 L 29.550781 10.519531 C 29.507812 10.460938 29.46875 10.402344 29.429688 10.347656 C 29.390625 10.289062 29.351562 10.230469 29.3125 10.175781 C 29.273438 10.117188 29.234375 10.0625 29.195312 10.003906 C 29.15625 9.945312 29.117188 9.890625 29.074219 9.832031 C 29.074219 9.941406 29.074219 10.050781 29.074219 10.160156 C 29.074219 10.265625 29.074219 10.375 29.074219 10.488281 L 29.074219 12.480469 L 28.273438 12.480469 L 28.273438 8.71875 L 29.1875 8.71875 L 30.386719 10.449219 C 30.449219 10.542969 30.511719 10.632812 30.574219 10.71875 C 30.640625 10.808594 30.703125 10.898438 30.761719 10.988281 C 30.828125 10.898438 30.890625 10.808594 30.953125 10.714844 C 31.015625 10.625 31.078125 10.53125 31.144531 10.441406 L 32.335938 8.71875 L 33.199219 8.71875 L 33.199219 12.480469 L 32.398438 12.480469 "/>
<path style=" stroke:none;fill-rule:nonzero;fill:rgb(100%,100%,100%);fill-opacity:1;" d="M 35.453125 12.480469 L 35.453125 11.082031 L 33.746094 8.71875 L 34.730469 8.71875 L 35.519531 9.863281 C 35.550781 9.90625 35.578125 9.949219 35.609375 9.992188 C 35.640625 10.035156 35.667969 10.078125 35.699219 10.121094 C 35.726562 10.164062 35.757812 10.207031 35.785156 10.25 C 35.816406 10.292969 35.847656 10.335938 35.875 10.378906 C 35.90625 10.335938 35.933594 10.292969 35.964844 10.246094 C 35.996094 10.203125 36.027344 10.160156 36.054688 10.117188 C 36.085938 10.074219 36.117188 10.03125 36.144531 9.988281 C 36.175781 9.945312 36.207031 9.902344 36.234375 9.859375 L 37.03125 8.71875 L 37.988281 8.71875 L 36.28125 11.046875 L 36.28125 12.480469 L 35.453125 12.480469 "/>
<path style=" stroke:none;fill-rule:nonzero;fill:rgb(100%,100%,100%);fill-opacity:1;" d="M 6.183594 6.453125 C 6.332031 6.453125 6.453125 6.445312 6.554688 6.425781 C 6.652344 6.40625 6.730469 6.375 6.792969 6.335938 C 6.851562 6.300781 6.894531 6.253906 6.921875 6.195312 C 6.945312 6.140625 6.957031 6.078125 6.957031 6.003906 C 6.957031 5.933594 6.945312 5.871094 6.921875 5.816406 C 6.894531 5.761719 6.851562 5.714844 6.792969 5.679688 C 6.730469 5.640625 6.652344 5.613281 6.554688 5.597656 C 6.453125 5.578125 6.332031 5.570312 6.183594 5.570312 L 5.617188 5.570312 L 5.617188 6.453125 Z M 5.253906 7.550781 L 5.253906 5.308594 L 6.261719 5.308594 C 6.390625 5.308594 6.507812 5.316406 6.613281 5.332031 C 6.714844 5.347656 6.808594 5.367188 6.886719 5.398438 C 6.964844 5.425781 7.03125 5.460938 7.089844 5.503906 C 7.144531 5.542969 7.191406 5.589844 7.226562 5.640625 C 7.261719 5.695312 7.289062 5.75 7.304688 5.8125 C 7.320312 5.871094 7.328125 5.9375 7.328125 6.003906 C 7.328125 6.074219 7.320312 6.136719 7.300781 6.199219 C 7.285156 6.261719 7.257812 6.316406 7.222656 6.371094 C 7.183594 6.421875 7.136719 6.472656 7.082031 6.511719 C 7.023438 6.554688 6.953125 6.589844 6.875 6.621094 C 6.792969 6.652344 6.699219 6.675781 6.597656 6.691406 C 6.492188 6.707031 6.375 6.714844 6.242188 6.714844 L 5.617188 6.714844 L 5.617188 7.550781 L 5.253906 7.550781 "/>
<path style=" stroke:none;fill-rule:nonzero;fill:rgb(100%,100%,100%);fill-opacity:1;" d="M 7.957031 7.550781 L 7.957031 5.308594 L 8.316406 5.308594 L 8.316406 7.289062 L 9.765625 7.289062 L 9.765625 7.550781 L 7.957031 7.550781 "/>
<path style=" stroke:none;fill-rule:nonzero;fill:rgb(100%,100%,100%);fill-opacity:1;" d="M 11.554688 5.871094 C 11.53125 5.828125 11.503906 5.78125 11.480469 5.738281 C 11.453125 5.691406 11.425781 5.644531 11.402344 5.601562 C 11.378906 5.644531 11.351562 5.691406 11.328125 5.734375 C 11.300781 5.78125 11.277344 5.828125 11.25 5.871094 L 10.765625 6.734375 L 12.039062 6.734375 Z M 12.488281 7.550781 L 12.171875 6.996094 L 10.632812 6.996094 L 10.320312 7.550781 L 9.921875 7.550781 L 11.199219 5.308594 L 11.617188 5.308594 L 12.890625 7.550781 L 12.488281 7.550781 "/>
<path style=" stroke:none;fill-rule:nonzero;fill:rgb(100%,100%,100%);fill-opacity:1;" d="M 15.472656 7.550781 L 13.984375 6.015625 C 13.933594 5.960938 13.886719 5.910156 13.835938 5.859375 C 13.789062 5.808594 13.738281 5.757812 13.6875 5.707031 C 13.6875 5.738281 13.6875 5.769531 13.6875 5.800781 C 13.6875 5.832031 13.6875 5.863281 13.6875 5.890625 C 13.6875 5.921875 13.6875 5.953125 13.6875 5.984375 C 13.6875 6.015625 13.6875 6.046875 13.6875 6.074219 L 13.6875 7.550781 L 13.332031 7.550781 L 13.332031 5.308594 L 13.726562 5.308594 L 15.210938 6.847656 C 15.238281 6.875 15.261719 6.898438 15.289062 6.925781 C 15.3125 6.949219 15.335938 6.976562 15.363281 7 C 15.386719 7.027344 15.414062 7.050781 15.4375 7.078125 C 15.460938 7.101562 15.488281 7.128906 15.511719 7.15625 C 15.511719 7.125 15.511719 7.09375 15.511719 7.0625 C 15.511719 7.03125 15.511719 7 15.511719 6.96875 C 15.511719 6.9375 15.511719 6.910156 15.511719 6.878906 C 15.511719 6.847656 15.511719 6.816406 15.511719 6.785156 L 15.511719 5.308594 L 15.867188 5.308594 L 15.867188 7.550781 L 15.472656 7.550781 "/>
<path style=" stroke:none;fill-rule:nonzero;fill:rgb(100%,100%,100%);fill-opacity:1;" d="M 16.714844 7.550781 L 16.714844 5.308594 L 18.742188 5.308594 L 18.742188 5.570312 L 17.074219 5.570312 L 17.074219 6.269531 L 18.53125 6.269531 L 18.53125 6.527344 L 17.074219 6.527344 L 17.074219 7.289062 L 18.761719 7.289062 L 18.761719 7.550781 L 16.714844 7.550781 "/>
<path style=" stroke:none;fill-rule:nonzero;fill:rgb(100%,100%,100%);fill-opacity:1;" d="M 22.667969 7.476562 C 22.621094 7.492188 22.570312 7.507812 22.515625 7.519531 C 22.457031 7.535156 22.394531 7.546875 22.328125 7.554688 C 22.257812 7.566406 22.183594 7.574219 22.101562 7.578125 C 22.019531 7.585938 21.933594 7.585938 21.839844 7.585938 C 21.703125 7.585938 21.574219 7.578125 21.453125 7.554688 C 21.332031 7.535156 21.21875 7.5 21.113281 7.457031 C 21.011719 7.414062 20.914062 7.359375 20.832031 7.296875 C 20.746094 7.230469 20.675781 7.15625 20.617188 7.070312 C 20.558594 6.984375 20.511719 6.890625 20.480469 6.78125 C 20.445312 6.675781 20.429688 6.558594 20.429688 6.429688 C 20.429688 6.308594 20.445312 6.195312 20.480469 6.089844 C 20.511719 5.984375 20.554688 5.890625 20.613281 5.804688 C 20.671875 5.71875 20.742188 5.644531 20.828125 5.578125 C 20.910156 5.511719 21.003906 5.453125 21.105469 5.410156 C 21.207031 5.363281 21.316406 5.328125 21.433594 5.304688 C 21.554688 5.28125 21.679688 5.269531 21.808594 5.269531 C 21.878906 5.269531 21.949219 5.273438 22.019531 5.277344 C 22.089844 5.28125 22.160156 5.289062 22.230469 5.300781 C 22.296875 5.308594 22.367188 5.320312 22.429688 5.335938 C 22.496094 5.351562 22.554688 5.371094 22.609375 5.390625 L 22.609375 5.667969 C 22.546875 5.644531 22.484375 5.625 22.417969 5.609375 C 22.355469 5.59375 22.289062 5.582031 22.226562 5.570312 C 22.164062 5.5625 22.097656 5.554688 22.039062 5.550781 C 21.976562 5.546875 21.914062 5.542969 21.855469 5.542969 C 21.75 5.542969 21.652344 5.550781 21.558594 5.566406 C 21.464844 5.585938 21.378906 5.609375 21.300781 5.640625 C 21.222656 5.675781 21.152344 5.714844 21.089844 5.765625 C 21.027344 5.8125 20.976562 5.871094 20.933594 5.933594 C 20.890625 6 20.855469 6.074219 20.835938 6.15625 C 20.8125 6.238281 20.800781 6.332031 20.800781 6.429688 C 20.800781 6.539062 20.816406 6.636719 20.84375 6.726562 C 20.871094 6.8125 20.910156 6.886719 20.957031 6.953125 C 21.007812 7.019531 21.0625 7.078125 21.128906 7.121094 C 21.195312 7.167969 21.269531 7.207031 21.347656 7.234375 C 21.425781 7.265625 21.503906 7.285156 21.589844 7.300781 C 21.675781 7.3125 21.761719 7.320312 21.847656 7.320312 C 21.949219 7.320312 22.042969 7.316406 22.128906 7.308594 C 22.210938 7.300781 22.289062 7.292969 22.355469 7.28125 C 22.425781 7.269531 22.484375 7.257812 22.535156 7.246094 C 22.585938 7.234375 22.628906 7.222656 22.667969 7.210938 L 22.667969 7.476562 "/>
<path style=" stroke:none;fill-rule:nonzero;fill:rgb(100%,100%,100%);fill-opacity:1;" d="M 24.527344 5.871094 C 24.5 5.828125 24.476562 5.78125 24.449219 5.738281 C 24.425781 5.691406 24.398438 5.644531 24.375 5.601562 C 24.351562 5.644531 24.324219 5.691406 24.300781 5.734375 C 24.273438 5.78125 24.25 5.828125 24.222656 5.871094 L 23.738281 6.734375 L 25.011719 6.734375 Z M 25.460938 7.550781 L 25.144531 6.996094 L 23.605469 6.996094 L 23.292969 7.550781 L 22.894531 7.550781 L 24.171875 5.308594 L 24.589844 5.308594 L 25.863281 7.550781 L 25.460938 7.550781 "/>
<path style=" stroke:none;fill-rule:nonzero;fill:rgb(100%,100%,100%);fill-opacity:1;" d="M 27.214844 6.375 C 27.363281 6.375 27.488281 6.367188 27.589844 6.351562 C 27.6875 6.335938 27.769531 6.3125 27.832031 6.277344 C 27.894531 6.246094 27.941406 6.203125 27.96875 6.152344 C 27.996094 6.097656 28.007812 6.035156 28.007812 5.964844 C 28.007812 5.894531 27.996094 5.832031 27.96875 5.78125 C 27.941406 5.730469 27.894531 5.691406 27.832031 5.660156 C 27.769531 5.628906 27.6875 5.605469 27.589844 5.589844 C 27.488281 5.574219 27.363281 5.570312 27.214844 5.570312 L 26.667969 5.570312 L 26.667969 6.375 Z M 28.1875 7.550781 L 27.371094 6.746094 C 27.355469 6.730469 27.339844 6.714844 27.324219 6.703125 C 27.308594 6.691406 27.292969 6.679688 27.277344 6.671875 C 27.261719 6.660156 27.246094 6.65625 27.226562 6.648438 C 27.210938 6.644531 27.191406 6.640625 27.167969 6.636719 C 27.148438 6.632812 27.125 6.628906 27.097656 6.628906 C 27.070312 6.628906 27.042969 6.628906 27.007812 6.628906 L 26.667969 6.628906 L 26.667969 7.550781 L 26.304688 7.550781 L 26.304688 5.308594 L 27.292969 5.308594 C 27.488281 5.308594 27.65625 5.324219 27.792969 5.351562 C 27.933594 5.382812 28.042969 5.425781 28.128906 5.484375 C 28.21875 5.539062 28.28125 5.609375 28.320312 5.691406 C 28.359375 5.769531 28.378906 5.863281 28.378906 5.964844 C 28.378906 6.050781 28.363281 6.128906 28.328125 6.199219 C 28.296875 6.269531 28.246094 6.332031 28.183594 6.386719 C 28.117188 6.441406 28.039062 6.484375 27.945312 6.519531 C 27.847656 6.554688 27.738281 6.582031 27.617188 6.597656 C 27.652344 6.609375 27.683594 6.621094 27.710938 6.640625 C 27.742188 6.660156 27.769531 6.683594 27.796875 6.710938 L 28.652344 7.550781 L 28.1875 7.550781 "/>
<path style=" stroke:none;fill-rule:nonzero;fill:rgb(100%,100%,100%);fill-opacity:1;" d="M 29.144531 7.550781 L 29.144531 5.308594 L 31.175781 5.308594 L 31.175781 5.570312 L 29.507812 5.570312 L 29.507812 6.269531 L 30.960938 6.269531 L 30.960938 6.527344 L 29.507812 6.527344 L 29.507812 7.289062 L 31.195312 7.289062 L 31.195312 7.550781 L 29.144531 7.550781 "/>
</g>
</svg>
